<?xml version="1.0" standalone="no"?>
<!DOCTYPE svg PUBLIC "-//W3C//DTD SVG 20010904//EN"
 "http://www.w3.org/TR/2001/REC-SVG-20010904/DTD/svg10.dtd">
<svg version="1.0" xmlns="http://www.w3.org/2000/svg"
 width="1532.000000pt" height="1532.000000pt" viewBox="0 0 1532.000000 1532.000000"
 preserveAspectRatio="xMidYMid meet">
<metadata>
Created by potrace 1.11, written by Peter Selinger 2001-2013
</metadata>
<g transform="translate(0.000000,1532.000000) scale(0.100000,-0.100000)"
fill="#000000" stroke="none">
<path d="M7318 15315 c-2 -1 -68 -6 -148 -10 -80 -4 -161 -8 -180 -10 -200
-16 -251 -21 -485 -51 -74 -9 -289 -44 -365 -59 -41 -8 -89 -17 -107 -20 -17
-3 -58 -12 -90 -20 -32 -8 -71 -17 -88 -20 -16 -3 -88 -20 -160 -39 -848 -221
-1565 -575 -2215 -1095 -52 -42 -102 -83 -111 -91 -8 -8 -42 -37 -75 -65 -77
-64 -452 -440 -529 -529 -33 -39 -76 -88 -95 -110 -155 -177 -424 -555 -567
-795 -47 -78 -53 -90 -129 -223 -49 -85 -216 -421 -253 -508 -13 -30 -37 -86
-53 -125 -16 -38 -38 -88 -47 -110 -103 -228 -306 -874 -377 -1200 -18 -82
-73 -341 -78 -370 -15 -80 -46 -257 -51 -290 -3 -23 -7 -52 -10 -65 -3 -13 -7
-42 -10 -65 -3 -22 -8 -51 -10 -65 -2 -14 -7 -47 -10 -75 -3 -27 -12 -102 -20
-165 -8 -63 -17 -145 -20 -181 -2 -37 -7 -82 -10 -100 -5 -33 -8 -68 -21 -264
-23 -336 -29 -524 -28 -950 0 -444 7 -648 29 -925 2 -36 7 -99 10 -140 4 -41
8 -91 10 -110 2 -19 6 -67 10 -106 3 -39 7 -80 9 -90 2 -11 7 -48 11 -84 3
-36 8 -76 10 -90 2 -14 6 -50 9 -80 4 -30 9 -62 11 -70 2 -8 7 -40 10 -70 3
-30 8 -62 10 -70 2 -8 7 -35 10 -60 4 -25 15 -94 26 -155 11 -60 22 -123 25
-140 36 -203 144 -644 217 -885 320 -1054 807 -1926 1487 -2665 129 -140 396
-398 485 -467 16 -13 37 -30 45 -38 9 -9 49 -43 90 -75 41 -33 82 -65 90 -72
8 -7 49 -37 90 -67 41 -30 80 -59 85 -63 52 -45 418 -273 570 -355 127 -69
456 -228 471 -228 3 0 29 -11 58 -24 210 -96 649 -238 976 -315 149 -35 154
-36 320 -67 47 -9 94 -18 105 -20 11 -2 97 -15 190 -29 200 -29 277 -37 540
-60 298 -26 1084 -27 1350 -1 17 2 66 6 110 10 44 4 96 8 115 11 19 2 56 7 83
10 196 22 383 50 567 86 58 11 118 23 134 26 17 3 102 23 190 44 724 178 1363
458 1936 848 104 71 267 189 316 230 18 14 51 42 75 61 205 166 484 433 649
619 36 41 70 79 75 85 26 29 164 196 195 236 19 25 37 47 40 50 6 5 153 207
183 250 517 758 870 1584 1092 2555 34 151 81 380 91 445 3 19 7 46 10 60 18
109 44 274 49 315 3 28 10 79 15 115 5 36 12 88 15 115 3 28 7 68 10 90 6 48
12 106 20 206 3 41 8 92 10 114 3 22 7 81 10 130 3 50 8 117 10 150 24 357 25
1118 0 1535 -8 142 -16 258 -20 308 -3 28 -7 78 -10 110 -10 106 -16 167 -20
202 -3 19 -7 58 -10 85 -5 44 -22 172 -30 230 -1 11 -6 39 -9 63 -4 24 -9 58
-11 75 -5 36 -22 146 -30 192 -3 17 -13 68 -21 115 -9 47 -18 96 -21 110 -54
307 -196 832 -322 1192 -91 260 -313 784 -355 838 -7 8 -18 29 -25 45 -25 60
-167 314 -254 455 -207 334 -439 644 -712 946 -29 32 -270 276 -318 322 -239
226 -617 515 -902 689 -231 141 -525 294 -735 382 -69 29 -134 56 -145 61 -11
6 -82 32 -157 60 -284 103 -637 203 -943 265 -150 31 -138 28 -275 50 -58 9
-116 18 -130 21 -39 6 -259 33 -325 39 -33 3 -73 8 -90 10 -16 2 -79 7 -140
11 -60 4 -128 8 -150 11 -49 4 -852 12 -857 8z m-256 -2077 c8 -22 2 -608 -6
-616 -4 -4 -16 -8 -27 -8 -10 -1 -20 -3 -21 -4 -2 -1 -14 -4 -28 -6 -63 -9
-118 -19 -165 -29 -16 -4 -37 -8 -45 -10 -8 -2 -15 -4 -15 -5 0 -1 -8 -3 -19
-5 -10 -2 -40 -9 -66 -15 -26 -6 -54 -13 -61 -14 -8 -1 -34 -8 -59 -15 -25 -7
-46 -13 -48 -12 -1 1 -16 -6 -32 -14 -17 -9 -35 -13 -40 -10 -6 3 -10 1 -10
-6 0 -7 -3 -9 -7 -6 -3 4 -12 2 -20 -4 -7 -6 -13 -9 -13 -6 0 3 -15 0 -34 -8
-29 -12 -36 -12 -46 0 -12 14 -32 10 -85 -15 -20 -10 -76 -32 -85 -35 -3 0
-15 -6 -27 -13 -12 -6 -30 -13 -40 -15 -10 -2 -42 -15 -70 -30 -29 -15 -53
-25 -53 -23 0 3 -28 -10 -62 -28 -191 -101 -255 -139 -269 -159 -6 -9 -16 -15
-85 -54 -40 -22 -81 -53 -118 -88 -12 -11 -41 -35 -66 -53 -24 -18 -71 -56
-102 -85 -80 -71 -481 -473 -543 -543 -27 -31 -62 -69 -77 -85 -15 -16 -25
-29 -23 -29 6 0 -21 -33 -53 -66 -13 -13 -20 -24 -17 -24 6 0 -10 -22 -56 -77
-5 -7 -7 -13 -4 -13 3 0 -8 -21 -26 -46 -17 -25 -32 -51 -33 -59 -1 -7 -7 -19
-13 -26 -22 -27 -103 -189 -103 -206 0 -10 -9 -29 -20 -43 -11 -14 -20 -31
-20 -38 0 -7 -7 -29 -16 -50 -10 -20 -19 -44 -21 -52 -2 -8 -5 -22 -8 -30 -2
-8 -4 -16 -5 -17 -2 -2 -3 -11 -5 -20 -1 -10 -7 -31 -13 -46 -7 -16 -12 -37
-12 -47 0 -10 -4 -21 -9 -24 -5 -4 -8 -17 -6 -31 1 -14 -2 -28 -6 -31 -5 -3
-9 -15 -9 -28 0 -12 -3 -26 -7 -30 -4 -3 -8 -19 -9 -34 -1 -16 -5 -46 -9 -68
-4 -21 -8 -50 -9 -64 0 -14 -4 -29 -7 -35 -4 -5 -6 -32 -5 -58 1 -27 -1 -50
-5 -52 -3 -3 -5 -23 -4 -45 1 -22 -2 -43 -7 -46 -4 -3 -6 -10 -2 -15 10 -17
15 -59 6 -59 -4 0 -8 -43 -7 -95 0 -52 3 -95 7 -95 4 0 4 -12 1 -27 -3 -16 -5
-32 -4 -38 0 -5 3 -35 6 -65 4 -30 8 -75 9 -100 2 -25 4 -45 5 -45 4 0 10 -48
12 -85 0 -19 4 -39 9 -45 9 -12 24 -85 21 -102 -1 -6 3 -14 8 -17 5 -3 7 -14
4 -24 -2 -10 3 -31 11 -47 9 -17 16 -39 16 -50 0 -11 9 -38 20 -60 11 -22 19
-47 20 -55 0 -9 4 -20 9 -25 11 -13 36 -87 33 -99 -2 -4 4 -13 13 -20 9 -6 17
-18 19 -26 4 -22 39 -93 54 -108 11 -12 34 -59 42 -87 1 -5 13 -19 26 -30 13
-11 24 -25 24 -30 0 -14 70 -117 92 -135 10 -8 20 -25 23 -37 3 -19 68 -93 82
-93 6 0 33 -27 33 -34 0 -3 38 -44 85 -90 47 -47 85 -82 85 -80 0 3 11 -5 24
-18 13 -13 41 -36 61 -53 21 -16 48 -39 61 -50 42 -38 59 -51 65 -50 9 0 69
-48 97 -77 14 -16 31 -28 39 -28 8 0 25 -7 38 -16 14 -9 25 -12 25 -8 0 5 4 4
8 -2 8 -13 161 -108 177 -110 6 -1 37 -18 69 -38 33 -20 64 -36 69 -36 15 0
167 -73 167 -80 0 -4 36 -22 80 -40 44 -18 80 -35 80 -39 0 -11 74 -39 121
-46 24 -4 51 -11 60 -15 9 -5 19 -6 23 -3 3 3 6 2 6 -4 0 -13 49 -34 88 -39
45 -5 61 -11 152 -49 57 -25 97 -36 140 -39 14 -1 31 -5 38 -10 7 -4 16 -5 19
-2 3 3 14 1 24 -5 13 -7 19 -6 19 1 0 6 4 8 10 5 5 -3 19 -8 30 -11 11 -2 29
-6 40 -9 11 -3 30 -7 41 -10 12 -2 32 -11 45 -20 13 -8 24 -12 24 -9 0 4 8 0
18 -9 20 -18 57 -27 128 -31 32 -2 59 -10 73 -22 12 -10 25 -18 29 -17 38 8
40 -20 32 -767 0 -8 1 -50 3 -93 1 -44 -1 -81 -6 -84 -4 -2 -3 -12 1 -21 6
-13 7 -211 2 -287 -1 -5 1 -72 3 -148 1 -76 -1 -141 -5 -143 -5 -3 -5 -10 -2
-16 10 -16 12 -268 2 -274 -4 -3 -4 -13 0 -22 5 -9 7 -57 5 -107 -1 -49 -3
-94 -3 -100 -3 -94 8 -229 18 -233 10 -3 10 -7 1 -18 -9 -11 -15 -11 -25 -3
-8 6 -14 8 -14 5 0 -4 -9 -2 -20 4 -11 6 -20 15 -20 21 0 6 -7 17 -15 25 -8 9
-15 13 -15 10 0 -4 -19 4 -42 16 -24 12 -46 21 -50 20 -5 -1 -8 2 -8 8 0 6 -3
9 -7 8 -8 -2 -75 31 -83 41 -6 8 -110 71 -116 71 -12 0 -194 178 -194 189 0 4
-11 14 -25 21 -13 7 -28 23 -31 34 -4 12 -15 29 -25 39 -11 10 -19 26 -19 36
0 10 -7 24 -15 31 -9 7 -13 15 -10 18 2 3 -9 18 -25 34 -16 15 -26 28 -22 28
4 0 -1 5 -10 11 -10 5 -18 17 -18 24 0 8 -5 15 -10 15 -6 0 -9 3 -8 8 0 4 -2
15 -5 25 -4 9 -10 25 -14 35 -3 9 -5 20 -5 25 1 4 -2 7 -7 7 -5 0 -14 13 -19
29 -8 22 -7 34 3 47 11 16 9 26 -12 68 -13 27 -27 57 -29 67 -2 11 -6 29 -9
41 -2 12 -8 24 -12 27 -5 3 -9 12 -11 19 -8 41 -13 80 -13 102 0 14 -3 32 -6
40 -3 8 -7 23 -8 33 -2 9 -3 18 -5 20 -1 1 -3 28 -5 60 -2 35 -10 66 -19 76
-9 9 -14 27 -11 38 6 33 -20 47 -93 50 -37 1 -100 4 -139 6 -40 2 -73 1 -73
-2 0 -4 -42 -5 -92 -3 -123 4 -207 3 -298 -2 -176 -11 -221 -13 -225 -6 -2 3
-41 5 -87 3 -99 -5 -185 -4 -293 0 -61 3 -84 0 -98 -12 -15 -13 -50 -15 -200
-15 -100 1 -192 4 -205 7 -26 7 -62 -9 -76 -33 -5 -8 -86 -91 -180 -185 -142
-141 -170 -175 -173 -202 -2 -32 18 -60 37 -48 16 10 12 -10 -8 -36 -13 -17
-17 -36 -14 -64 2 -22 5 -56 6 -75 1 -19 7 -44 12 -55 6 -11 9 -40 9 -65 -1
-25 1 -49 4 -55 3 -5 7 -19 8 -30 1 -11 6 -36 9 -55 4 -19 8 -44 9 -55 2 -11
6 -31 9 -45 4 -14 9 -32 11 -40 2 -8 4 -15 5 -15 1 0 4 -13 5 -30 4 -38 9 -57
18 -71 4 -7 9 -29 13 -50 3 -22 9 -43 14 -49 4 -5 9 -19 12 -30 32 -119 51
-181 57 -185 11 -8 41 -93 41 -116 0 -11 9 -30 20 -42 11 -12 20 -28 20 -36 0
-8 5 -18 10 -21 6 -4 8 -11 5 -16 -4 -5 -1 -9 5 -9 6 0 9 -4 6 -9 -3 -4 3 -16
14 -26 12 -11 16 -21 11 -25 -13 -7 35 -65 54 -65 13 0 125 -166 125 -185 0
-4 3 -10 8 -12 4 -1 25 -30 47 -63 54 -80 57 -83 188 -226 29 -30 68 -75 87
-98 44 -54 140 -151 140 -143 0 4 6 0 13 -8 7 -9 28 -27 47 -40 46 -31 80 -68
80 -84 0 -12 21 -27 40 -30 3 -1 19 -14 35 -29 17 -16 42 -35 57 -43 15 -7 34
-24 42 -35 8 -13 21 -19 30 -16 8 3 29 -7 48 -23 18 -17 36 -30 41 -30 16 0
23 -2 42 -13 11 -6 23 -10 28 -9 4 1 7 -3 7 -9 0 -5 5 -7 11 -3 6 3 22 -6 36
-22 14 -16 25 -28 26 -26 6 11 224 -96 265 -130 39 -32 91 -53 103 -41 9 9 18
9 38 -2 14 -7 41 -15 60 -18 18 -3 43 -15 56 -27 12 -11 32 -23 44 -25 13 -2
29 -9 37 -15 7 -7 17 -9 21 -7 5 3 31 -3 58 -12 29 -10 59 -15 70 -11 11 4 23
3 26 -2 6 -9 58 -18 135 -22 22 -2 45 -5 50 -8 5 -3 18 -2 29 2 21 7 59 -4 86
-27 25 -21 84 -27 202 -22 34 1 70 -9 79 -23 4 -7 8 -9 8 -4 0 5 7 3 16 -5 13
-10 78 -20 132 -19 36 1 50 0 80 -3 17 -2 35 -7 38 -10 12 -11 24 -326 14
-332 -4 -3 -5 -35 -3 -72 11 -164 11 -168 -17 -167 -31 2 -149 21 -240 39 -14
3 -34 7 -45 9 -11 2 -38 9 -60 14 -22 6 -51 13 -65 16 -155 30 -493 152 -690
251 -78 38 -118 60 -240 128 -19 11 -87 54 -150 96 -263 174 -538 419 -750
671 -30 35 -59 70 -65 76 -51 60 -176 231 -262 359 -106 159 -207 335 -300
525 -41 85 -79 162 -84 171 -4 9 -28 68 -54 130 -25 63 -50 123 -54 134 -10
24 -40 106 -74 200 -38 105 -122 382 -153 505 -22 91 -64 269 -70 304 -3 16
-6 32 -8 35 -2 3 -7 24 -10 46 -7 41 -22 131 -31 175 -10 53 -24 137 -30 180
-3 25 -8 56 -10 70 -7 39 -13 90 -20 150 -3 30 -8 66 -10 80 -4 24 -9 71 -19
170 -3 25 -8 81 -11 125 -3 44 -8 103 -10 130 -6 77 -15 228 -20 355 -6 133
-6 732 -1 865 5 109 15 292 20 360 9 119 17 212 21 245 2 19 7 64 10 100 4 36
8 76 10 90 2 14 6 52 10 85 4 32 8 67 10 76 2 9 6 40 10 69 4 29 9 62 11 74 2
12 9 50 15 86 17 111 19 121 50 275 17 83 48 222 70 310 22 88 42 167 44 175
6 24 41 138 75 245 18 55 38 118 45 140 14 43 71 197 85 230 5 11 28 65 50
120 63 151 212 451 290 582 39 64 70 118 70 119 0 6 158 236 221 321 164 221
377 455 564 616 39 33 72 63 75 66 11 14 180 141 255 192 358 245 736 413
1159 515 60 14 116 27 125 29 37 6 88 15 111 20 14 3 45 8 70 11 25 3 47 8 49
10 9 9 29 3 33 -8z m1413 -25 c17 -2 95 -20 175 -40 480 -118 890 -314 1275
-607 44 -34 82 -63 85 -66 3 -3 34 -29 70 -59 99 -83 336 -323 435 -441 137
-162 284 -365 402 -555 243 -390 464 -903 602 -1400 17 -60 35 -123 40 -140
19 -60 106 -460 116 -535 2 -14 9 -50 15 -80 6 -30 13 -77 16 -105 3 -27 7
-55 9 -62 2 -6 11 -67 19 -135 22 -172 25 -195 31 -263 3 -33 8 -78 10 -99 3
-22 7 -76 11 -120 3 -45 7 -103 9 -131 25 -301 25 -1121 0 -1430 -2 -27 -7
-88 -10 -135 -7 -101 -14 -184 -20 -225 -2 -16 -6 -57 -10 -90 -10 -97 -32
-264 -40 -304 -2 -13 -7 -42 -9 -65 -5 -34 -23 -137 -61 -341 -3 -16 -14 -68
-25 -115 -10 -47 -21 -96 -24 -110 -33 -169 -205 -725 -271 -875 -7 -16 -34
-82 -61 -144 -84 -202 -188 -403 -345 -671 -28 -47 -183 -276 -228 -335 -280
-371 -571 -655 -923 -898 -38 -26 -72 -47 -77 -47 -5 0 -11 -4 -13 -8 -4 -10
-192 -119 -293 -170 -284 -141 -705 -279 -971 -317 l-41 -6 -2 48 c-5 180 1
321 15 348 6 11 10 49 9 83 -1 56 2 68 27 99 15 20 28 33 28 29 0 -4 10 0 21
8 12 8 27 12 34 10 6 -3 17 1 23 9 8 9 25 13 50 10 58 -7 90 -5 122 7 3 1 10
3 15 4 6 0 31 11 56 24 26 12 56 24 67 27 12 2 29 8 40 14 10 5 27 8 38 7 10
-2 24 0 29 5 6 4 22 10 35 13 14 3 35 7 47 10 13 3 25 1 28 -4 3 -4 28 0 55
10 28 10 50 16 50 14 0 -3 20 6 44 20 24 13 47 22 50 19 3 -4 6 -1 6 6 0 7 4
10 10 6 5 -3 18 3 28 13 19 19 49 35 67 37 6 0 17 5 25 10 8 5 26 10 40 11 14
0 43 9 65 19 22 9 45 18 51 19 7 1 19 8 28 15 9 7 16 11 16 7 0 -3 23 8 50 25
28 17 50 35 50 40 0 5 7 9 15 9 7 0 18 6 22 13 4 8 28 24 53 37 111 59 226
132 271 173 10 9 21 16 23 15 2 -2 17 8 35 22 17 14 61 48 98 75 37 28 93 76
125 107 32 31 58 54 58 51 0 -3 56 51 124 118 68 68 140 138 161 155 l37 32
-32 35 -31 36 33 34 c107 112 130 139 186 209 34 42 62 81 62 87 0 6 4 11 10
11 5 0 21 17 34 38 13 22 31 45 39 53 8 8 17 24 21 34 3 11 17 33 31 49 13 16
22 33 19 37 -3 5 -2 9 3 9 4 0 19 21 33 47 13 27 27 50 30 53 15 15 93 190 84
190 -3 0 2 7 10 16 9 8 16 22 16 29 0 8 12 20 27 27 32 16 65 73 66 116 0 6 4
12 9 12 4 0 8 12 8 27 0 46 4 73 10 73 4 0 6 16 5 35 -1 20 2 38 7 41 4 3 6
10 3 15 -4 5 1 16 9 25 15 14 21 36 17 58 -2 9 28 75 39 86 5 5 8 16 15 52 2
10 0 20 -4 22 -12 8 1 152 16 181 5 11 9 35 8 53 0 17 2 32 6 32 8 0 3 45 -7
61 -4 7 -8 41 -9 75 -1 38 -7 69 -15 80 -10 11 -16 46 -17 103 -3 121 -7 152
-23 181 -8 14 -16 39 -17 55 -6 63 -11 100 -13 100 -1 0 -3 19 -5 42 -3 38 -8
65 -21 133 -3 14 -7 34 -9 45 -2 11 -4 20 -5 20 -2 0 -5 12 -13 55 -3 14 -10
39 -17 55 -6 17 -12 32 -12 35 -1 3 -7 19 -15 37 -7 18 -13 43 -13 56 0 14 -7
30 -15 37 -8 7 -13 15 -10 19 2 4 -2 19 -10 34 -7 14 -11 28 -7 31 3 3 0 6 -6
6 -7 0 -12 10 -12 23 0 13 -4 27 -9 32 -5 6 -26 42 -47 80 -20 39 -42 73 -48
77 -6 4 -8 8 -3 8 6 0 -39 77 -53 90 -4 3 -16 22 -29 43 -13 21 -28 43 -34 50
-7 7 -30 35 -52 62 -60 76 -222 236 -308 304 -42 34 -79 61 -81 61 -3 0 -19
13 -37 30 -18 16 -36 27 -40 24 -4 -2 -9 0 -11 4 -5 13 -161 112 -185 118 -13
4 -23 10 -23 15 0 5 -6 9 -14 9 -8 0 -17 7 -20 16 -4 9 -9 14 -13 11 -3 -4
-18 1 -32 11 -14 10 -60 33 -101 52 -41 19 -76 38 -78 43 -2 4 -10 7 -18 7 -8
0 -29 8 -47 17 -18 9 -41 18 -52 20 -10 2 -22 8 -25 13 -4 6 -16 12 -28 15
-12 2 -42 13 -67 24 -25 11 -45 18 -45 16 0 -2 -20 4 -45 15 -25 11 -45 17
-45 13 0 -3 -6 -1 -12 4 -7 6 -31 16 -53 23 -35 11 -57 25 -112 71 -7 5 -13 7
-13 4 0 -3 -6 -3 -12 2 -7 4 -24 9 -38 11 -13 2 -30 8 -37 14 -8 6 -16 8 -20
5 -3 -4 -13 -1 -21 5 -8 7 -20 13 -26 13 -42 3 -106 19 -106 27 0 6 -9 8 -20
5 -10 -3 -35 4 -54 14 -22 12 -37 15 -41 8 -5 -7 -11 -7 -19 1 -7 5 -25 11
-40 12 -14 1 -26 5 -26 9 0 3 -6 6 -12 7 -33 2 -73 14 -79 24 -4 7 -9 6 -14
-2 -5 -9 -9 -9 -14 -1 -7 11 -28 18 -81 26 -14 2 -38 6 -55 9 -16 3 -41 8 -55
11 -14 4 -37 8 -52 9 -15 1 -35 10 -46 19 -12 11 -22 14 -26 8 -4 -5 -16 -8
-29 -5 -40 9 -52 12 -52 14 0 1 -13 4 -30 6 -16 2 -46 7 -65 11 l-35 9 0 1008
c0 554 2 1012 5 1016 11 17 68 21 84 5 8 -8 19 -15 24 -15 5 0 21 -9 35 -21
15 -11 35 -22 46 -24 18 -3 70 -32 81 -45 3 -3 22 -19 43 -34 21 -16 35 -31
33 -34 -3 -2 13 -21 34 -41 22 -21 40 -45 40 -54 0 -9 3 -17 8 -17 4 0 16 -17
27 -37 11 -21 35 -57 53 -81 18 -24 34 -54 35 -65 1 -12 9 -31 19 -41 9 -10
15 -23 12 -27 -2 -5 5 -27 17 -50 12 -24 23 -54 24 -68 3 -27 23 -105 32 -131
4 -8 5 -19 4 -23 -1 -5 4 -27 10 -50 16 -57 18 -114 3 -142 -11 -22 -10 -23
14 -19 14 3 29 7 32 9 4 2 22 -7 40 -20 24 -18 37 -22 50 -15 10 5 20 7 24 3
8 -8 166 -11 166 -3 0 6 48 5 218 -3 40 -2 75 -1 77 2 3 6 164 6 175 1 10 -5
130 -5 130 0 0 3 35 4 78 3 74 -3 137 -4 287 -2 39 0 107 -2 153 -4 46 -2 85
0 87 4 3 3 37 5 77 2 180 -9 204 -9 223 1 11 5 25 10 31 11 6 0 89 78 184 173
155 154 174 176 177 210 2 20 5 46 6 57 2 11 1 25 -2 30 -3 6 -7 28 -8 50 -8
111 -26 250 -33 250 -1 0 -3 11 -4 25 -2 14 -6 39 -11 55 -5 17 -9 38 -10 48
-2 9 -3 18 -5 20 -1 1 -3 9 -5 17 -2 8 -6 25 -9 38 -8 32 -16 64 -20 89 -3 12
-9 30 -15 41 -6 11 -7 22 -4 26 3 3 1 6 -6 6 -7 0 -11 7 -8 15 4 8 1 17 -5 21
-6 4 -8 23 -5 45 4 29 -2 50 -24 93 -16 30 -28 59 -28 63 1 4 -3 21 -10 37 -6
16 -10 35 -7 42 2 6 -2 21 -10 33 -8 11 -12 21 -7 21 4 1 -3 10 -16 20 -13 11
-20 20 -17 20 22 0 -95 129 -116 130 -5 0 -8 5 -8 10 0 14 -37 66 -72 103 -16
16 -28 32 -28 35 0 4 -14 22 -30 41 -17 18 -30 37 -30 40 0 4 -18 26 -39 49
-22 23 -37 42 -33 42 15 0 -261 261 -328 310 -19 14 -49 38 -67 54 -18 15 -33
25 -33 22 0 -3 -10 3 -22 14 -13 10 -27 20 -33 22 -5 1 -20 12 -33 23 -13 11
-26 18 -29 17 -3 -2 -9 0 -12 5 -10 15 -66 48 -75 45 -5 -2 -12 1 -15 6 -10
14 -121 74 -121 65 0 -4 -6 -1 -13 7 -13 16 -67 45 -79 42 -5 -1 -8 3 -8 8 0
6 -9 10 -20 10 -11 0 -20 5 -20 11 0 6 -6 9 -14 6 -9 -4 -21 5 -31 20 -17 25
-100 69 -122 65 -7 -2 -13 2 -13 8 0 5 -3 9 -7 8 -5 0 -15 1 -23 5 -8 3 -55
18 -105 32 -49 15 -97 30 -105 33 -8 3 -18 6 -22 7 -5 2 -9 4 -10 5 -2 1 -15
3 -30 4 -14 2 -39 8 -55 15 -17 7 -34 11 -39 9 -5 -1 -20 4 -33 11 -12 7 -32
11 -42 8 -10 -3 -19 -2 -19 3 0 8 -47 18 -157 34 -16 2 -28 5 -28 6 0 2 -32 9
-80 16 -48 7 -72 11 -105 18 -14 3 -52 8 -85 11 -33 3 -80 8 -105 11 -25 3
-64 7 -88 9 -23 1 -45 5 -49 9 -3 3 -12 -2 -20 -12 -11 -15 -12 -13 -1 13 6
17 15 35 19 40 3 6 5 21 4 35 -1 14 2 31 8 39 16 19 19 38 18 111 -1 131 -1
216 1 268 l2 53 36 -6 c19 -4 49 -9 65 -12z m-1397 -2435 c5 -7 9 -26 7 -43
-1 -16 1 -34 4 -40 7 -13 9 -117 2 -130 -3 -5 -7 -46 -8 -90 -2 -44 -4 -106
-6 -138 -2 -32 0 -60 3 -62 6 -4 4 -107 -4 -245 -1 -25 0 -49 3 -55 8 -14 8
-185 1 -185 -4 0 -5 -30 -3 -67 2 -38 5 -102 6 -144 2 -41 7 -81 11 -87 4 -6
2 -22 -5 -34 -7 -12 -11 -38 -10 -58 1 -19 3 -64 5 -100 1 -36 -1 -72 -5 -81
-5 -9 -5 -19 -2 -23 9 -9 9 -116 0 -116 -5 0 -5 -5 -1 -11 8 -14 14 -71 7 -82
-2 -4 -10 -4 -16 0 -7 4 -15 8 -19 9 -5 1 -9 2 -10 4 -2 1 -12 3 -22 5 -11 2
-31 12 -45 23 -14 10 -38 22 -53 25 -15 4 -33 13 -40 20 -26 24 -87 67 -96 67
-5 0 -25 16 -45 37 -20 20 -37 33 -37 30 0 -4 -19 13 -42 37 -62 64 -88 95
-88 106 0 5 -9 15 -19 22 -11 8 -31 39 -45 70 -15 32 -33 61 -40 65 -8 4 -17
19 -19 33 -8 40 -19 70 -26 70 -4 0 -7 21 -6 48 1 26 -3 50 -7 53 -5 3 -11 16
-14 30 -3 13 -7 31 -9 39 -2 8 -4 21 -4 28 -1 7 -5 10 -11 7 -12 -7 -12 -6
-15 60 -1 28 3 61 8 75 6 14 12 39 14 55 2 17 5 44 7 60 1 17 -1 37 -5 46 -5
9 -5 19 -2 23 4 4 8 26 9 49 5 84 12 124 23 145 6 12 9 22 5 22 -3 0 -1 6 5
14 6 8 11 18 10 22 -1 5 0 12 1 17 1 4 3 15 4 25 2 30 62 126 107 170 24 24
64 55 89 70 25 14 47 29 50 32 9 12 45 23 80 26 19 1 35 3 35 4 0 1 14 3 32 5
17 2 39 8 49 13 9 5 32 6 50 2 23 -5 37 -4 44 5 6 7 19 12 28 10 9 -1 26 4 37
11 24 17 30 17 43 2z m1453 -4255 c16 -10 29 -21 29 -25 0 -14 42 -46 55 -42
7 3 20 -2 29 -11 9 -9 16 -14 16 -11 0 4 22 -5 49 -18 27 -14 51 -22 55 -19 3
3 8 -2 12 -11 3 -9 12 -16 20 -16 8 0 14 -4 14 -8 0 -5 11 -14 25 -20 14 -7
33 -18 42 -24 20 -16 165 -162 178 -180 22 -29 55 -101 55 -118 0 -11 5 -22
11 -26 13 -8 44 -75 41 -88 -2 -4 3 -15 9 -23 7 -8 14 -32 15 -53 1 -21 5 -44
9 -51 9 -13 17 -56 16 -79 -6 -105 -4 -366 3 -383 12 -28 15 -97 5 -117 -4 -8
-10 -37 -13 -64 -4 -27 -9 -53 -12 -58 -3 -4 -6 -22 -8 -40 -2 -18 -11 -55
-21 -83 -15 -44 -20 -61 -28 -100 -2 -5 -18 -41 -37 -80 -19 -38 -34 -83 -35
-98 0 -24 -9 -33 -55 -59 -47 -27 -154 -74 -185 -82 -5 -2 -18 -6 -27 -10 -9
-4 -25 -9 -35 -11 -10 -2 -18 -4 -18 -5 0 -1 -8 -3 -17 -6 -24 -5 -36 -9 -83
-22 -22 -6 -53 -13 -70 -16 -16 -3 -41 -8 -55 -11 -14 -2 -38 -7 -55 -10 -16
-3 -37 -7 -45 -9 -26 -6 -70 33 -66 57 2 12 -2 31 -8 42 -9 15 -12 153 -11
535 1 439 3 519 16 545 13 25 15 93 15 450 -1 470 -4 453 68 450 21 -1 43 4
49 11 15 17 14 17 48 -3z"/>
</g>
</svg>
